<mxfile host="app.diagrams.net" modified="2023-11-27T23:31:10.739Z" agent="Mozilla/5.0 (Windows NT 10.0; Win64; x64) AppleWebKit/537.36 (KHTML, like Gecko) Chrome/119.0.0.0 Safari/537.36" etag="9yxYYZ_IF4JYQ68MqSdr" version="22.1.4" type="device">
  <diagram name="Trang-1" id="CdJVJY49jFVyNBXGlTDY">
    <mxGraphModel dx="1050" dy="662" grid="1" gridSize="10" guides="1" tooltips="1" connect="1" arrows="1" fold="1" page="1" pageScale="1" pageWidth="827" pageHeight="1169" math="0" shadow="0">
      <root>
        <mxCell id="0" />
        <mxCell id="1" parent="0" />
        <mxCell id="BQI--tozMqQrCzvtOMn0-1" style="edgeStyle=orthogonalEdgeStyle;rounded=0;orthogonalLoop=1;jettySize=auto;html=1;entryX=0.5;entryY=0;entryDx=0;entryDy=0;" parent="1" source="BQI--tozMqQrCzvtOMn0-2" target="BQI--tozMqQrCzvtOMn0-4" edge="1">
          <mxGeometry relative="1" as="geometry" />
        </mxCell>
        <mxCell id="BQI--tozMqQrCzvtOMn0-2" value="Start" style="ellipse;whiteSpace=wrap;html=1;" parent="1" vertex="1">
          <mxGeometry x="280" width="120" height="80" as="geometry" />
        </mxCell>
        <mxCell id="BQI--tozMqQrCzvtOMn0-3" style="edgeStyle=orthogonalEdgeStyle;rounded=0;orthogonalLoop=1;jettySize=auto;html=1;" parent="1" source="BQI--tozMqQrCzvtOMn0-4" target="BQI--tozMqQrCzvtOMn0-6" edge="1">
          <mxGeometry relative="1" as="geometry" />
        </mxCell>
        <mxCell id="BQI--tozMqQrCzvtOMn0-4" value="i, j, cout, len,count[100] = {0}" style="rounded=0;whiteSpace=wrap;html=1;" parent="1" vertex="1">
          <mxGeometry x="280" y="110" width="120" height="60" as="geometry" />
        </mxCell>
        <mxCell id="BQI--tozMqQrCzvtOMn0-5" style="edgeStyle=orthogonalEdgeStyle;rounded=0;orthogonalLoop=1;jettySize=auto;html=1;entryX=0.5;entryY=0;entryDx=0;entryDy=0;" parent="1" source="BQI--tozMqQrCzvtOMn0-6" target="BQI--tozMqQrCzvtOMn0-8" edge="1">
          <mxGeometry relative="1" as="geometry" />
        </mxCell>
        <mxCell id="BQI--tozMqQrCzvtOMn0-6" value="len = strlen(str)" style="rounded=0;whiteSpace=wrap;html=1;" parent="1" vertex="1">
          <mxGeometry x="280" y="200" width="120" height="60" as="geometry" />
        </mxCell>
        <mxCell id="BQI--tozMqQrCzvtOMn0-7" style="edgeStyle=orthogonalEdgeStyle;rounded=0;orthogonalLoop=1;jettySize=auto;html=1;entryX=0.5;entryY=0;entryDx=0;entryDy=0;" parent="1" source="BQI--tozMqQrCzvtOMn0-8" target="BQI--tozMqQrCzvtOMn0-10" edge="1">
          <mxGeometry relative="1" as="geometry" />
        </mxCell>
        <mxCell id="BQI--tozMqQrCzvtOMn0-8" value="str" style="rounded=1;whiteSpace=wrap;html=1;" parent="1" vertex="1">
          <mxGeometry x="280" y="290" width="120" height="60" as="geometry" />
        </mxCell>
        <mxCell id="BQI--tozMqQrCzvtOMn0-9" style="edgeStyle=orthogonalEdgeStyle;rounded=0;orthogonalLoop=1;jettySize=auto;html=1;entryX=0;entryY=0.5;entryDx=0;entryDy=0;" parent="1" source="BQI--tozMqQrCzvtOMn0-10" target="BQI--tozMqQrCzvtOMn0-13" edge="1">
          <mxGeometry relative="1" as="geometry" />
        </mxCell>
        <mxCell id="BQI--tozMqQrCzvtOMn0-10" value="i=0" style="rounded=0;whiteSpace=wrap;html=1;" parent="1" vertex="1">
          <mxGeometry x="280" y="380" width="120" height="60" as="geometry" />
        </mxCell>
        <mxCell id="BQI--tozMqQrCzvtOMn0-11" value="True" style="edgeStyle=orthogonalEdgeStyle;rounded=0;orthogonalLoop=1;jettySize=auto;html=1;entryX=0;entryY=0.5;entryDx=0;entryDy=0;" parent="1" source="BQI--tozMqQrCzvtOMn0-13" target="BQI--tozMqQrCzvtOMn0-18" edge="1">
          <mxGeometry relative="1" as="geometry">
            <Array as="points">
              <mxPoint x="590" y="410" />
              <mxPoint x="590" y="410" />
            </Array>
          </mxGeometry>
        </mxCell>
        <mxCell id="BQI--tozMqQrCzvtOMn0-12" style="edgeStyle=orthogonalEdgeStyle;rounded=0;orthogonalLoop=1;jettySize=auto;html=1;entryX=1;entryY=0.5;entryDx=0;entryDy=0;" parent="1" source="BQI--tozMqQrCzvtOMn0-13" target="BQI--tozMqQrCzvtOMn0-36" edge="1">
          <mxGeometry relative="1" as="geometry">
            <Array as="points">
              <mxPoint x="490" y="560" />
              <mxPoint x="440" y="560" />
            </Array>
          </mxGeometry>
        </mxCell>
        <mxCell id="BQI--tozMqQrCzvtOMn0-13" value="i&amp;lt;len" style="rhombus;whiteSpace=wrap;html=1;" parent="1" vertex="1">
          <mxGeometry x="470" y="370" width="80" height="80" as="geometry" />
        </mxCell>
        <mxCell id="BQI--tozMqQrCzvtOMn0-14" style="edgeStyle=orthogonalEdgeStyle;rounded=0;orthogonalLoop=1;jettySize=auto;html=1;" parent="1" source="BQI--tozMqQrCzvtOMn0-15" target="BQI--tozMqQrCzvtOMn0-13" edge="1">
          <mxGeometry relative="1" as="geometry">
            <Array as="points">
              <mxPoint x="510" y="300" />
            </Array>
          </mxGeometry>
        </mxCell>
        <mxCell id="BQI--tozMqQrCzvtOMn0-15" value="i++" style="rounded=0;whiteSpace=wrap;html=1;" parent="1" vertex="1">
          <mxGeometry x="530" y="280" width="120" height="60" as="geometry" />
        </mxCell>
        <mxCell id="BQI--tozMqQrCzvtOMn0-16" style="edgeStyle=orthogonalEdgeStyle;rounded=0;orthogonalLoop=1;jettySize=auto;html=1;entryX=0;entryY=0.5;entryDx=0;entryDy=0;" parent="1" source="BQI--tozMqQrCzvtOMn0-18" target="BQI--tozMqQrCzvtOMn0-20" edge="1">
          <mxGeometry relative="1" as="geometry" />
        </mxCell>
        <mxCell id="BQI--tozMqQrCzvtOMn0-17" value="false" style="edgeStyle=orthogonalEdgeStyle;rounded=0;orthogonalLoop=1;jettySize=auto;html=1;entryX=1;entryY=0.5;entryDx=0;entryDy=0;" parent="1" source="BQI--tozMqQrCzvtOMn0-18" target="BQI--tozMqQrCzvtOMn0-15" edge="1">
          <mxGeometry relative="1" as="geometry" />
        </mxCell>
        <mxCell id="BQI--tozMqQrCzvtOMn0-18" value="str[i]==&#39; &#39;" style="rhombus;whiteSpace=wrap;html=1;" parent="1" vertex="1">
          <mxGeometry x="630" y="370" width="80" height="80" as="geometry" />
        </mxCell>
        <mxCell id="BQI--tozMqQrCzvtOMn0-19" style="edgeStyle=orthogonalEdgeStyle;rounded=0;orthogonalLoop=1;jettySize=auto;html=1;entryX=0;entryY=0.5;entryDx=0;entryDy=0;" parent="1" source="BQI--tozMqQrCzvtOMn0-20" target="BQI--tozMqQrCzvtOMn0-22" edge="1">
          <mxGeometry relative="1" as="geometry" />
        </mxCell>
        <mxCell id="BQI--tozMqQrCzvtOMn0-20" value="cout=1" style="rounded=0;whiteSpace=wrap;html=1;" parent="1" vertex="1">
          <mxGeometry x="770" y="380" width="120" height="60" as="geometry" />
        </mxCell>
        <mxCell id="BQI--tozMqQrCzvtOMn0-21" style="edgeStyle=orthogonalEdgeStyle;rounded=0;orthogonalLoop=1;jettySize=auto;html=1;entryX=0;entryY=0.5;entryDx=0;entryDy=0;" parent="1" source="BQI--tozMqQrCzvtOMn0-22" target="BQI--tozMqQrCzvtOMn0-25" edge="1">
          <mxGeometry relative="1" as="geometry" />
        </mxCell>
        <mxCell id="BQI--tozMqQrCzvtOMn0-22" value="j=i+1" style="rounded=0;whiteSpace=wrap;html=1;" parent="1" vertex="1">
          <mxGeometry x="950" y="380" width="120" height="60" as="geometry" />
        </mxCell>
        <mxCell id="BQI--tozMqQrCzvtOMn0-23" value="true" style="edgeStyle=orthogonalEdgeStyle;rounded=0;orthogonalLoop=1;jettySize=auto;html=1;entryX=0;entryY=0.5;entryDx=0;entryDy=0;" parent="1" source="BQI--tozMqQrCzvtOMn0-25" target="BQI--tozMqQrCzvtOMn0-30" edge="1">
          <mxGeometry relative="1" as="geometry" />
        </mxCell>
        <mxCell id="BQI--tozMqQrCzvtOMn0-24" value="False" style="edgeStyle=orthogonalEdgeStyle;rounded=0;orthogonalLoop=1;jettySize=auto;html=1;" parent="1" source="BQI--tozMqQrCzvtOMn0-25" edge="1">
          <mxGeometry relative="1" as="geometry">
            <mxPoint x="1195" y="540" as="targetPoint" />
          </mxGeometry>
        </mxCell>
        <mxCell id="BQI--tozMqQrCzvtOMn0-25" value="j&amp;lt;len" style="rhombus;whiteSpace=wrap;html=1;" parent="1" vertex="1">
          <mxGeometry x="1140" y="370" width="110" height="80" as="geometry" />
        </mxCell>
        <mxCell id="BQI--tozMqQrCzvtOMn0-26" style="edgeStyle=orthogonalEdgeStyle;rounded=0;orthogonalLoop=1;jettySize=auto;html=1;entryX=0.5;entryY=0;entryDx=0;entryDy=0;" parent="1" source="BQI--tozMqQrCzvtOMn0-27" target="BQI--tozMqQrCzvtOMn0-25" edge="1">
          <mxGeometry relative="1" as="geometry">
            <Array as="points">
              <mxPoint x="1195" y="290" />
            </Array>
          </mxGeometry>
        </mxCell>
        <mxCell id="BQI--tozMqQrCzvtOMn0-27" value="j++" style="rounded=0;whiteSpace=wrap;html=1;" parent="1" vertex="1">
          <mxGeometry x="1230" y="260" width="120" height="60" as="geometry" />
        </mxCell>
        <mxCell id="BQI--tozMqQrCzvtOMn0-28" value="True" style="edgeStyle=orthogonalEdgeStyle;rounded=0;orthogonalLoop=1;jettySize=auto;html=1;entryX=0;entryY=0.5;entryDx=0;entryDy=0;" parent="1" source="BQI--tozMqQrCzvtOMn0-30" target="BQI--tozMqQrCzvtOMn0-31" edge="1">
          <mxGeometry relative="1" as="geometry" />
        </mxCell>
        <mxCell id="BQI--tozMqQrCzvtOMn0-29" style="edgeStyle=orthogonalEdgeStyle;rounded=0;orthogonalLoop=1;jettySize=auto;html=1;entryX=1;entryY=0.5;entryDx=0;entryDy=0;" parent="1" source="BQI--tozMqQrCzvtOMn0-30" target="BQI--tozMqQrCzvtOMn0-27" edge="1">
          <mxGeometry relative="1" as="geometry" />
        </mxCell>
        <mxCell id="BQI--tozMqQrCzvtOMn0-30" value="str[i]==str[j]" style="rhombus;whiteSpace=wrap;html=1;" parent="1" vertex="1">
          <mxGeometry x="1310" y="370" width="170" height="80" as="geometry" />
        </mxCell>
        <mxCell id="BQI--tozMqQrCzvtOMn0-31" value="cout=1&lt;br&gt;count[j]=1" style="rounded=0;whiteSpace=wrap;html=1;" parent="1" vertex="1">
          <mxGeometry x="1550" y="380" width="160" height="60" as="geometry" />
        </mxCell>
        <mxCell id="BQI--tozMqQrCzvtOMn0-32" style="edgeStyle=orthogonalEdgeStyle;rounded=0;orthogonalLoop=1;jettySize=auto;html=1;entryX=0;entryY=0.5;entryDx=0;entryDy=0;" parent="1" source="BQI--tozMqQrCzvtOMn0-33" target="BQI--tozMqQrCzvtOMn0-35" edge="1">
          <mxGeometry relative="1" as="geometry" />
        </mxCell>
        <mxCell id="BQI--tozMqQrCzvtOMn0-33" value="count[i]==0" style="rhombus;whiteSpace=wrap;html=1;" parent="1" vertex="1">
          <mxGeometry x="1155" y="540" width="80" height="80" as="geometry" />
        </mxCell>
        <mxCell id="BQI--tozMqQrCzvtOMn0-34" style="edgeStyle=orthogonalEdgeStyle;rounded=0;orthogonalLoop=1;jettySize=auto;html=1;entryX=1;entryY=1;entryDx=0;entryDy=0;" parent="1" source="BQI--tozMqQrCzvtOMn0-35" target="BQI--tozMqQrCzvtOMn0-13" edge="1">
          <mxGeometry relative="1" as="geometry">
            <mxPoint x="630" y="570" as="targetPoint" />
            <Array as="points">
              <mxPoint x="1405" y="650" />
              <mxPoint x="530" y="650" />
            </Array>
          </mxGeometry>
        </mxCell>
        <mxCell id="BQI--tozMqQrCzvtOMn0-35" value="&quot;%c: %d\n&quot;, str[i], cout" style="rounded=1;whiteSpace=wrap;html=1;" parent="1" vertex="1">
          <mxGeometry x="1310" y="550" width="190" height="60" as="geometry" />
        </mxCell>
        <mxCell id="BQI--tozMqQrCzvtOMn0-36" value="End" style="ellipse;whiteSpace=wrap;html=1;" parent="1" vertex="1">
          <mxGeometry x="230" y="520" width="120" height="80" as="geometry" />
        </mxCell>
      </root>
    </mxGraphModel>
  </diagram>
</mxfile>
